<?xml version="1.0" standalone="no"?>
<!DOCTYPE svg PUBLIC "-//W3C//DTD SVG 20010904//EN"
 "http://www.w3.org/TR/2001/REC-SVG-20010904/DTD/svg10.dtd">
<svg version="1.0" xmlns="http://www.w3.org/2000/svg"
 width="498.000000pt" height="498.000000pt" viewBox="0 0 498.000000 498.000000"
 preserveAspectRatio="xMidYMid meet">

<g transform="translate(0.000000,498.000000) scale(0.100000,-0.100000)"
fill="#000000" stroke="none">
<path d="M1160 3823 c-278 -486 -615 -1217 -754 -1635 -82 -247 -109 -377
-110 -528 -1 -116 1 -128 24 -169 14 -25 47 -61 75 -80 41 -30 57 -36 97 -35
105 4 181 81 250 254 48 123 127 283 174 357 79 123 224 248 359 308 127 56
366 103 377 74 16 -37 372 -891 391 -933 l21 -49 145 7 c80 4 147 8 148 10 2
2 -241 580 -539 1284 -378 893 -548 1282 -558 1282 -9 0 -49 -60 -100 -147z
m210 -791 c144 -337 261 -614 259 -616 -2 -2 -49 -11 -104 -20 -200 -33 -362
-109 -492 -230 -119 -110 -212 -258 -287 -456 -53 -138 -81 -193 -117 -234
-38 -44 -61 -57 -114 -67 -59 -11 -138 29 -165 82 -31 59 -43 175 -30 266 37
240 164 621 340 1013 89 201 434 890 440 883 4 -5 125 -284 270 -621z"/>
<path d="M2620 2685 c0 -1145 2 -1286 15 -1291 9 -4 72 -3 140 1 l125 7 0 751
0 751 29 -46 c82 -129 219 -165 576 -149 301 13 406 -8 488 -99 82 -91 81 -84
87 -685 l5 -530 25 -4 c14 -1 76 0 138 4 l112 7 0 1284 0 1284 -140 0 -140 0
0 -712 0 -713 -21 35 c-32 54 -70 90 -119 115 -81 41 -139 46 -462 43 -264 -3
-310 -1 -359 14 -110 34 -178 109 -205 227 -10 42 -14 170 -14 524 l0 467
-140 0 -140 0 0 -1285z"/>
</g>
</svg>
